<?xml version="1.0" encoding="UTF-8"?>
<!-- Generator: Adobe Illustrator 25.3.1, SVG Export Plug-In . SVG Version: 6.00 Build 0)  -->
<svg xmlns="http://www.w3.org/2000/svg" xmlns:xlink="http://www.w3.org/1999/xlink" version="1.1" id="Capa_1" x="0px" y="0px" viewBox="0 0 512 512" style="enable-background:new 0 0 512 512;" xml:space="preserve" width="512" height="512">
<g>
	<g>
		<g>
			<g>
				<path style="fill:#00D5FE;" d="M212.683,482.535c-59.899,10.917-108.359-28.734-124.413-78.365      c-6.661-20.574-7.755-42.865-1.775-63.973c5.101-18.016,16.119-33.96,30.909-45.391c14.707-11.363,31.236-15.448,48.62-20.607      c26.738-7.929,55.994-24.966,81.88-4.057c13.786,11.118,21.27,27.78,30.663,42.441c0.598,0.936,1.202,1.855,1.807,2.773      c10.109,15.054,20.244,28.735,24.336,46.865C317.862,420.509,270.102,472.07,212.683,482.535z"/>
				<path style="fill:#322BBF;" d="M181.391,297.669c-1.032-0.371-1.951-1.075-2.579-2.075c-1.498-2.379-0.784-5.522,1.593-7.019      c3.759-2.368,23.674-13.79,47.19-4.72c22.311,8.544,30.02,28.974,31.34,32.983c0.877,2.67-0.576,5.547-3.245,6.427      c-2.671,0.873-5.548-0.574-6.427-3.245c-1.066-3.241-7.297-19.762-25.308-26.66c-19.41-7.354-36.263,2.656-38.125,3.828      C184.451,298.057,182.814,298.181,181.391,297.669z"/>
				<path style="opacity:0.25;fill:#322BBF;" d="M212.683,482.535c-59.899,10.917-108.359-28.734-124.413-78.365      c21.201-5.968,40.036,13.689,52.721,28.19c13.898,15.892,28.967,24.686,50.813,26.451c26.621,2.139,57.301-10.897,66.253-35.768      c9.499-26.446-2.705-46.287-4.248-62.623c-2.029-21.264,6.997-36.815,24.758-47.839c0.598,0.936,1.202,1.855,1.807,2.773      c10.109,15.054,20.244,28.735,24.336,46.865C317.862,420.509,270.102,472.07,212.683,482.535z"/>
				<path style="opacity:0.75;fill:#FFFFFF;" d="M100.821,372.265c-7.758-17.777,1.064-44.688,16.709-57.929      c1.895-1.604,4.597,0.623,3.416,2.786c-24.474,44.837-11.892,56.174-18.114,56.406      C101.941,373.561,101.159,373.034,100.821,372.265z"/>
				<g>
					<g>
						<g>
							<path style="fill:#FC09B2;" d="M134.649,381.583c-5.547-5.324-4.965-11.304-0.583-14.142         c12.878-8.341,38.505,6.718,29.035,17.618C158.497,390.358,143.492,390.071,134.649,381.583z"/>
						</g>
					</g>
					<g>
						<g>
							<path style="fill:#FC09B2;" d="M235.446,417.862c7.667-0.568,11.03-5.547,9.462-10.527         c-4.609-14.635-33.954-19.362-33.603-4.927C211.475,409.426,223.222,418.767,235.446,417.862z"/>
						</g>
					</g>
				</g>
			</g>
			<g>
				<path style="fill:#000E3F;" d="M427.723,328.896c-6.764-13.718-18.022-21.854-30.865-22.375      c-19.039-0.733-28.689,11.755-38.008,23.865c-4.139,5.392-8.42,10.927-13.505,15.35c-11.069,9.626-25.047,15.374-38.789,16.035      c-3.784-16.745-12.512-29.588-21.736-43.211l-2.862-4.234c-3.027-4.588-5.771-9.248-8.444-13.765      c-7.119-12.015-13.836-23.367-24.432-31.882c-21.972-17.762-45.789-9.366-68.802-1.23c-5.132,1.798-9.957,3.501-14.782,4.943      l-4.943,1.443c-15.799,4.612-30.723,8.964-44.299,19.465c-0.142,0.118-0.284,0.213-0.426,0.331      c-0.009,0.008-0.018,0.015-0.028,0.023c-5.168-7.683-12.626-13.941-21.205-17.68c-2.312-1.007-4.883-1.702-7.601-2.439      c-5.876-1.587-11.953-3.231-14.491-8.13c-3.287-6.352-0.111-12.502,3.252-19.014c2.502-4.843,5.088-9.851,5.121-15.221      c0.035-5.723-1.783-10.251-5.402-13.452c-6.592-5.83-17.203-5.455-22.945-4.716c-19.926,2.573-40.434,18.951-48.76,38.942      c-6.285,15.085-4.673,30.029,4.541,42.074c1.635,2.139,3.666,3.926,5.631,5.656c3.113,2.741,6.056,5.328,7.243,9.047      c1.838,5.765-0.042,11.442-2.033,17.45c-2.975,8.982-6.345,19.162,2.647,31.135c7.583,10.096,20.108,12.847,32.809,12.847      c8.923,0,17.933-1.358,25.37-2.478l0.8-0.121c0,0.004,0,0.009,0,0.013c-0.071,17.195,3.832,34.271,10.478,49.172      c15.09,33.869,49.739,69.606,100.756,69.606c6.717,0,13.718-0.615,21.003-1.939c28.949-5.275,55.723-21.003,73.509-42.786      c6.102,1.821,18.661,5.038,32.048,5.038c13.883,0,28.642-3.453,37.984-15.444c6.078-7.805,6.528-15.373,7.001-23.368      c0.142-2.271,0.284-4.612,0.544-7.001c0.922-8.16,5.18-14.427,11.424-16.792c5.676-2.129,10.903-0.591,16.461,1.041      c3.051,0.899,6.173,1.821,9.532,2.2c14.12,1.632,21.854-4.801,25.851-10.478C435.528,365.177,435.694,345.027,427.723,328.896z       M80.873,363.768c-0.096,0-0.183-0.028-0.281-0.013l-1.176,0.178c-17.136,2.58-43.035,6.483-54.59-8.899      c-7.805-10.389-5.024-18.785-2.079-27.673c2.092-6.317,4.257-12.851,2.042-19.79c-1.504-4.716-4.982-7.777-8.345-10.738      c-1.912-1.681-3.718-3.271-5.125-5.114c-8.359-10.927-9.798-24.536-4.056-38.321c7.839-18.822,27.081-34.232,45.753-36.646      c5.1-0.661,14.482-1.042,19.951,3.802c2.767,2.446,4.155,6.01,4.127,10.592c-0.028,4.463-2.296,8.856-4.698,13.507      c-3.658,7.079-7.44,14.401-3.25,22.492c3.301,6.377,10.505,8.324,16.861,10.043c2.582,0.698,5.021,1.358,7.079,2.254      c8.034,3.503,15.002,9.388,19.775,16.612C91.253,314.384,81.843,339,80.874,363.735      C80.873,363.746,80.873,363.757,80.873,363.768z M212.352,480.668c-60.406,11.022-101.11-28.382-117.643-65.467      c-16.58-37.204-15.634-88.386,23.841-118.896c13.032-10.052,27.625-14.333,43.069-18.826l4.943-1.466      c4.943-1.467,10.028-3.264,14.971-4.991c12.606-4.447,25.449-8.988,37.937-8.988c9.366,0,18.543,2.555,27.247,9.579      c10.052,8.112,16.603,19.182,23.533,30.889c2.696,4.541,5.464,9.224,8.562,13.907l2.885,4.281      c8.893,13.15,17.337,25.567,21.026,41.343c0.047,0.189,0.095,0.402,0.142,0.615c0.213,0.994,0.426,1.987,0.591,2.98      c4.328,22.611-0.402,45.103-13.718,65.278C272.948,456.283,243.998,474.897,212.352,480.668z M424.27,374.638      c-4.872,6.93-12.606,10.005-22.327,8.893c-3.027-0.355-6.008-1.23-8.893-2.058c-5.889-1.75-12.015-3.548-18.85-0.946      c-7.592,2.862-12.772,10.312-13.86,19.891c-0.284,2.507-0.426,4.896-0.568,7.19c-0.449,7.734-0.851,14.38-6.197,21.263      c-16.272,20.884-51.371,13.316-64.545,9.532c1.348-1.774,2.625-3.571,3.855-5.416c13.765-20.814,18.732-44.063,14.427-67.478      c14.404-0.828,28.973-6.882,40.515-16.911c5.369-4.659,9.768-10.383,14.002-15.894c9.153-11.873,17.715-23.155,34.886-22.421      c11.424,0.473,21.476,7.852,27.625,20.293C431.72,345.547,431.697,364.066,424.27,374.638z"/>
				<path style="fill:#000E3F;" d="M180.115,301.224c0.97,0.355,1.987,0.52,3.004,0.52c1.679,0,3.311-0.449,4.73-1.348      c0.97-0.615,9.744-5.937,21.476-5.937c4.565,0,9.035,0.828,13.292,2.436c16.391,6.292,22.067,21.358,23.06,24.314      c1.183,3.642,4.588,6.102,8.42,6.102c0.946,0,1.868-0.165,2.767-0.449c4.659-1.538,7.19-6.551,5.676-11.211      c-1.419-4.281-9.697-26.182-33.585-35.335c-6.362-2.436-13.008-3.69-19.773-3.69c-15.681,0-27.53,6.693-30.794,8.751      c-4.139,2.602-5.393,8.089-2.791,12.228C176.662,299.284,178.247,300.561,180.115,301.224z M180.399,288.57      c2.72-1.703,13.907-8.16,28.784-8.16c5.7,0,11.92,0.946,18.401,3.453c22.327,8.538,30.037,28.973,31.362,32.97      c0.875,2.673-0.591,5.558-3.264,6.433c-0.52,0.166-1.064,0.26-1.585,0.26c-2.129,0-4.139-1.372-4.825-3.5      c-1.064-3.24-7.308-19.773-25.307-26.656c-5.132-1.963-10.099-2.696-14.64-2.696c-12.654,0-22.114,5.653-23.486,6.504      c-0.851,0.544-1.798,0.804-2.72,0.804c-0.591,0-1.183-0.118-1.727-0.307c-1.041-0.378-1.963-1.088-2.578-2.081      C177.325,293.206,178.034,290.084,180.399,288.57z"/>
				<path style="fill:#000E3F;" d="M181.062,361.725c-0.97-0.379-2.058,0.094-2.46,1.064c-2.389,6.126-2.129,13.339,0.71,18.85      c2.294,4.423,5.984,7.403,10.69,8.586c1.443,0.355,2.862,0.52,4.257,0.52c9.059,0,16.485-7.332,19.3-15.326      c0.331-0.993-0.189-2.081-1.159-2.412c-0.993-0.355-2.081,0.166-2.412,1.159c-2.696,7.639-10.288,14.593-19.063,12.37      c-4.565-1.135-7.001-4.234-8.231-6.646c-2.365-4.565-2.578-10.596-0.568-15.705      C182.504,363.191,182.031,362.103,181.062,361.725z"/>
				<path style="fill:#000E3F;" d="M227.726,362.67c-0.97-0.378-2.058,0.118-2.436,1.088c-2.034,5.18-1.868,11.329,0.402,15.634      c1.608,3.075,4.139,5.085,7.332,5.842c0.899,0.213,1.798,0.331,2.696,0.331c6.812,0,12.606-6.102,14.924-12.654      c0.331-0.993-0.189-2.058-1.159-2.412c-0.993-0.355-2.081,0.166-2.412,1.159c-2.058,5.842-7.379,11.282-13.174,9.887      c-2.129-0.497-3.761-1.821-4.872-3.903c-1.774-3.382-1.868-8.302-0.213-12.511C229.192,364.137,228.696,363.049,227.726,362.67z      "/>
				<path style="fill:#000E3F;" d="M154.075,336.157c-0.97-0.355-2.058,0.118-2.46,1.088c-2.01,5.18-1.845,11.329,0.402,15.634      c1.608,3.075,4.163,5.085,7.332,5.842c0.922,0.237,1.821,0.331,2.72,0.331c6.812,0,12.606-6.102,14.924-12.654      c0.331-0.97-0.189-2.058-1.159-2.412c-0.993-0.331-2.081,0.189-2.412,1.159c-2.058,5.842-7.379,11.282-13.174,9.91      c-2.129-0.521-3.761-1.821-4.872-3.926c-1.774-3.382-1.868-8.301-0.213-12.512C155.542,337.647,155.045,336.535,154.075,336.157      z"/>
				<path style="fill:#000E3F;" d="M287.517,361.086c-0.237,0-23.297-1.277-35.69-14.262c-1.395-1.49-2.744-2.909-4.021-4.257      c-10.856-11.542-18.022-19.158-33.089-24.574c-15.042-5.416-25.425-4.116-41.154-2.153c-1.845,0.237-3.761,0.473-5.795,0.71      c-17.81,2.105-36.4-11.589-36.589-11.731c-0.851-0.615-2.034-0.449-2.649,0.378c-0.639,0.851-0.473,2.034,0.378,2.649      c0.804,0.615,19.938,14.782,39.309,12.465c2.034-0.237,3.973-0.473,5.818-0.71c15.184-1.892,25.213-3.146,39.403,1.963      c14.191,5.109,21.121,12.464,31.622,23.581c1.277,1.372,2.625,2.791,4.021,4.281c13.458,14.097,37.251,15.397,38.245,15.444      h0.095c0.993,0,1.845-0.78,1.892-1.797C289.362,362.032,288.558,361.133,287.517,361.086z"/>
				<path style="fill:#000E3F;" d="M219.188,432.514c-2.034,0.26-3.973,0.496-5.842,0.733c-15.161,1.868-25.189,3.122-39.38-1.987      c-14.191-5.108-21.121-12.464-31.622-23.58c-1.277-1.372-2.625-2.791-4.021-4.257c-13.458-14.12-37.251-15.421-38.245-15.468      c-0.993-0.071-1.939,0.757-1.987,1.798c-0.047,1.064,0.757,1.939,1.798,1.987c0.237,0.023,23.297,1.301,35.69,14.285      c1.395,1.466,2.72,2.885,4.021,4.257c10.856,11.518,18.022,19.134,33.088,24.55c15.042,5.416,25.425,4.115,41.13,2.153      c1.868-0.237,3.784-0.473,5.818-0.71c17.786-2.081,36.4,11.589,36.589,11.731c0.331,0.26,0.733,0.378,1.135,0.378      c0.568,0,1.135-0.26,1.514-0.757c0.639-0.828,0.449-2.011-0.378-2.649C257.692,444.386,238.606,430.219,219.188,432.514z"/>
			</g>
		</g>
		<g>
			<g>
				<path style="fill:#6280FF;" d="M332.562,238.966c-26.332,0.484-64.34-13.028-87.917-23.764      c-22.644-10.341-30.506-15.474-33.127-41.135C205.336,113.53,250.993,44.498,315.46,27.857      c6.408-1.647,8.728,3.833,13.698,12.867c10.17,18.486,21.08,36.638,34.004,53.351c10.189,13.176,33.09,30.177,32.504,48.43      c-0.268,8.022-3.677,14.199-11.162,17.776c-9.142,4.358-19.931,1.694-29.718,3.222c-12.221,1.915-19.584,12.088-13.642,23.916      c5.778,11.44,18.672,21.756,19.371,31.152C361.621,233.506,344.67,238.728,332.562,238.966z"/>
				<g>
					<path style="fill:#322BBF;" d="M315.902,160.555c-26.722-9.89-55.294-31.62-70.841-56.323c-1.181-1.878,1.365-3.859,2.9-2.264       c46.11,47.891,72.877,53.332,70.017,57.882C317.533,160.558,316.657,160.833,315.902,160.555z"/>
					<path style="fill:#322BBF;" d="M311.284,177.116c-37.617,0.049-61.524-8.082-85.573-24.475       c-0.844-0.575-1.062-1.726-0.487-2.569c1.436-2.108,2.481-0.186,22.62,7.927c25.245,10.155,40.675,10.752,63.794,15.677       C313.669,174.1,313.367,177.106,311.284,177.116z"/>
				</g>
				<g>
					<g>
						<path style="fill:#FC09B2;" d="M272.836,74.652c6.11,0.779,12.731,6.541,14.045,14.626c1.079,6.641-4.037,12.406-13.423,6.687        C262.481,89.278,262.103,73.284,272.836,74.652z"/>
					</g>
					<g>
						<path style="fill:#FC09B2;" d="M308.612,119.676c6.11,0.779,12.731,6.541,14.045,14.626        c1.079,6.641-4.037,12.406-13.423,6.687C298.257,134.302,297.88,118.308,308.612,119.676z"/>
					</g>
				</g>
				<path style="opacity:0.25;fill:#000E3F;" d="M332.562,238.966c-34.157,0.628-100.142-25.312-111.663-38.287      c-6.972-7.861-8.362-16.637-9.38-26.612c-5.718-55.985,32.619-115.858,82.667-138.554      c21.856,38.936-32.984,71.314-22.365,125.588c3.167,16.114,14.468,27.738,27.838,30.778c12.097,2.75,31.814-1.22,45.733,2.382      c6.261,8.758,14.566,16.808,15.124,24.31C361.621,233.506,344.67,238.728,332.562,238.966z"/>
			</g>
			<g>
				<path style="fill:#000E3F;" d="M327.512,181.027c-2.152-5.558-2.01-11.305,0.378-16.627c2.531-5.677,7.521-10.241,13.623-12.559      c6.22-2.342,12.866-2.484,18.732-2.602c8.112-0.189,15.137-0.355,17.195-6.67c1.774-5.416-3.264-10.336-11.613-18.495      c-14.286-13.954-38.197-37.298-53.523-86.375c-0.331-0.994-1.395-1.561-2.389-1.254c-0.993,0.307-1.537,1.372-1.23,2.365      c15.634,50.023,39.971,73.769,54.493,87.984c7.048,6.859,11.708,11.424,10.667,14.593c-1.159,3.619-5.724,3.879-13.694,4.068      c-6.173,0.142-13.15,0.284-19.962,2.838c-7.048,2.672-12.795,7.971-15.752,14.545c-2.767,6.173-2.933,13.127-0.449,19.536      c2.885,7.498,6.67,12.701,9.721,16.864c3.595,4.92,5.96,8.136,5.109,12.251c-0.851,4.163-5.605,6.149-9.65,5.866      c-38.008-2.554-100.33-35.264-104.847-40.255c-0.71-0.781-1.892-0.852-2.673-0.142c-0.781,0.686-0.851,1.892-0.142,2.673      c4.659,5.156,68.613,38.883,107.402,41.508c0.331,0.024,0.639,0.024,0.97,0.024c5.416,0,11.447-3.004,12.654-8.917      c1.183-5.747-1.892-9.934-5.747-15.232C333.85,193.018,330.232,188.051,327.512,181.027z"/>
				<path style="fill:#000E3F;" d="M299.083,93.752c0.851-0.591,1.041-1.774,0.449-2.625c-0.615-0.851-1.774-1.064-2.649-0.473      c-2.815,2.011-4.707,5.109-5.18,8.562c-0.473,3.406,0.473,6.882,2.602,9.508c2.081,2.602,5.251,4.257,8.656,4.541      c0.331,0.024,0.686,0.024,1.017,0.024c3.075,0,6.078-1.111,8.373-3.169c0.78-0.686,0.851-1.892,0.166-2.673      c-0.71-0.781-1.892-0.851-2.673-0.142c-1.798,1.608-4.139,2.389-6.575,2.176c-2.389-0.189-4.565-1.324-6.031-3.122      c-1.466-1.821-2.105-4.233-1.774-6.622C295.795,97.277,297.072,95.172,299.083,93.752z"/>
				<path style="fill:#000E3F;" d="M287.541,70.219c4.021-1.987,8.704-0.994,10.62,2.223c1.608,2.72,1.041,6.457-1.372,9.366      c-0.686,0.78-0.568,1.987,0.213,2.649c0.355,0.307,0.804,0.449,1.23,0.449c0.544,0,1.064-0.237,1.443-0.662      c3.477-4.139,4.163-9.65,1.727-13.718c-1.348-2.271-3.5-3.832-6.031-4.565l0.213-5.984c0.047-1.041-0.757-1.939-1.798-1.963      c-1.088,0.047-1.939,0.757-1.987,1.821l-0.213,5.605c-0.189-0.024-0.355-0.024-0.544,0.024l-1.916-5.487      c-0.331-0.993-1.419-1.514-2.389-1.183c-0.993,0.355-1.514,1.419-1.183,2.413l1.75,4.99c-0.497,0.189-0.97,0.378-1.443,0.615      c-0.922,0.449-1.324,1.584-0.851,2.531C285.459,70.29,286.595,70.669,287.541,70.219z"/>
				<path style="fill:#000E3F;" d="M341.253,122.04c0.118,0.024,0.237,0.048,0.355,0.048c0.899,0,1.679-0.639,1.868-1.538      c0.189-1.041-0.497-2.034-1.514-2.223l-5.842-1.135c-0.166-2.601-1.23-5.085-3.122-6.906c-3.429-3.288-8.94-3.855-13.742-1.419      c-0.946,0.473-1.301,1.608-0.828,2.554c0.473,0.923,1.608,1.301,2.531,0.828c3.382-1.727,7.143-1.419,9.413,0.757      c2.72,2.602,2.625,7.379-0.213,10.856c-0.662,0.804-0.52,2.01,0.284,2.649c0.355,0.308,0.78,0.426,1.183,0.426      c0.544,0,1.112-0.236,1.466-0.686c0.331-0.402,0.639-0.828,0.899-1.254l4.494,2.815c0.307,0.213,0.662,0.307,1.017,0.307      c0.615,0,1.23-0.307,1.585-0.899c0.568-0.875,0.307-2.034-0.591-2.601l-4.896-3.075c0.071-0.189,0.118-0.378,0.166-0.544      L341.253,122.04z"/>
				<path style="fill:#000E3F;" d="M510.031,236.206c-5.937-16.793-21.428-27.483-39.38-27.176      c-3.595,0.047-7.616,0.544-11.849,1.041c-13.954,1.703-29.777,3.618-35.785-9.863c-1.632-3.69-2.129-7.805-2.365-12.866      c-0.875-19.181-8.988-33.254-23.486-40.822c0.213-1.254,0.355-2.578,0.402-3.95c0.449-14.144-11.897-27.057-22.8-38.434      c-3.832-3.997-7.427-7.757-10.099-11.211c-11.093-14.356-21.523-30.723-33.845-53.121l-1.183-2.152      c-4.257-7.852-7.356-13.505-14.664-11.636c-63.623,16.438-111.872,84.317-105.344,148.248      c2.673,26.158,10.549,31.858,34.224,42.667c25.615,11.66,61.754,23.935,87.321,23.935h1.419      c5.866-0.118,13.079-1.419,18.945-4.494c6.055,12.961,15.492,22.776,26.135,27.057c14.096,5.676,24.787,2.46,35.146-0.639      c3.95-1.206,8.065-2.436,12.251-3.098c11.991-1.868,18.708,2.697,25.851,7.545c4.423,3.004,9.011,6.126,15.019,7.876      c3.571,1.064,7.308,1.561,11.022,1.561c10.43,0,20.79-3.973,27.483-11.021C511.97,257.729,513.957,247.275,510.031,236.206z       M332.526,237.081c-25.023,0.544-61.376-11.897-87.085-23.604c-21.83-9.958-29.493-14.664-32.048-39.593      c-6.339-62.18,40.61-128.215,102.529-144.203c0.591-0.142,1.135-0.213,1.632-0.213c3.146,0,4.967,3.004,8.751,9.981l1.206,2.199      c12.417,22.564,22.942,39.096,34.153,53.594c2.791,3.595,6.48,7.45,10.383,11.518c10.359,10.832,22.138,23.131,21.736,35.69      c-0.024,1.159-0.142,2.271-0.331,3.311c-0.142,0.875-0.331,1.703-0.568,2.483c-1.419,4.659-4.446,8.065-9.2,10.335      c-5.322,2.531-11.329,2.507-17.62,2.483c-3.832,0-7.758-0.024-11.566,0.568c-7.143,1.112-12.819,4.849-15.563,10.217      c-2.531,4.896-2.342,10.714,0.52,16.414c2.46,4.872,6.102,9.461,9.603,13.883c4.73,5.984,9.2,11.613,9.579,16.556      C359.536,231.428,345.308,236.824,332.526,237.081z M501.705,263.05c-8.136,8.586-22.398,12.063-34.697,8.444      c-5.44-1.608-9.768-4.541-13.954-7.403c-7.427-5.038-15.113-10.265-28.571-8.136c-4.423,0.71-8.656,1.963-12.748,3.193      c-10.17,3.051-19.773,5.936-32.663,0.757c-9.863-3.973-18.661-13.221-24.266-25.544c5.191-3.633,8.096-9.173,7.592-15.941      c-0.449-6.102-5.274-12.18-10.383-18.614c-3.382-4.281-6.883-8.704-9.177-13.245c-2.341-4.636-2.531-9.13-0.544-12.985      c2.2-4.281,6.859-7.284,12.795-8.207c3.5-0.544,7.119-0.52,10.951-0.52c6.433,0.023,13.174,0.047,19.276-2.862      c5.416-2.578,9.059-6.504,10.88-11.708c12.914,7.072,19.867,19.607,20.671,37.228c0.213,4.754,0.686,9.768,2.696,14.238      c7.143,16.036,25.189,13.86,39.687,12.086c4.139-0.496,8.065-0.969,11.471-1.017c16.556-0.26,30.274,9.177,35.761,24.645      C509.889,247.109,508.186,256.215,501.705,263.05z"/>
			</g>
		</g>
		<g>
			<path style="fill:#000E3F;" d="M34.665,131.002c4.753,8.252-5.008,13.604-10.692,18.034c-0.305,0.256-0.543,0.515-0.905,0.619     c-7.613-8.597-14.385-17.503-21.878-26.266l0.009-0.069c4.737-6.749,13.976-14.052,21.062-5.469     c1.771,2.144,2.668,4.95,3.058,7.525c0.092,0.506,0.333,0.563,0.857,0.649C29.431,126.687,32.556,127.2,34.665,131.002z      M17.217,121.886c-1.083-0.457-2.086-0.342-3.049,0.132c-1.194,0.663-2.552,1.594-2.97,2.645c1.095,1.092,2.13,3.206,4.077,4.626     c1.691-1.076,3.954-2.622,3.497-4.82C18.61,123.569,18.303,122.343,17.217,121.886z M25.599,132.43     c-0.815-0.363-1.947-0.328-2.725,0.055c-1.178,0.522-2.188,1.485-3.243,2.16c0.855,1.813,2.691,4.742,4.545,5.271l0.109-0.025     c1.418-1.171,3.518-2.451,3.541-4.534C27.763,134.118,26.669,133.023,25.599,132.43z"/>
			<path style="fill:#000E3F;" d="M54.937,117.786c1.321,1.684,2.658,3.658,3.324,5.608c-5.622,3.751-11.302,8.206-16.914,11.35     c-6.467-9.539-13.179-18.374-19.027-28.151c6.148-4.65,16.685-12.036,16.852-11.789c1.598,1.737,2.649,3.903,3.959,5.837     l0.028,0.041c-2.963,3.151-7.04,5.017-10.435,7.798l-0.125,0.083l-0.014,0.071c1.127,1.575,1.929,3.552,3.303,4.781l0.072,0.014     c1.728-0.993,3.425-2.204,5.139-3.308l0.028,0.042c1.541,1.654,2.55,3.673,3.957,5.659c-1.379,1.598-4.398,2.984-4.668,3.827     c0.799,1.799,2.471,3.906,3.488,5.139l0.067,0.014c3.619-2.455,7.255-4.439,10.914-7.1L54.937,117.786z"/>
			<path style="fill:#000E3F;" d="M80.996,84.443c-1.901,1.414-4.287,2.859-6.661,3.345c-0.943-3.589-7.303-1.843-6.093,1.718     c0.069,0.467,0.36,0.822,0.61,1.197c1.208,1.169,2.518,0.889,3.846,0.434c3.324-1.25,7.015-0.908,10.029,0.734     c3.435,1.592,5.426,5.372,5.566,9.149c0.439,4.352-2.243,7.731-5.938,9.451c-5.245,2.511-12.558,2.065-15.075-3.737l-0.069-0.132     l-0.067-0.132c1.922-1.372,4.779-2.439,6.747-3.504c2.143,3.647,8.647,0.439,5.837-3.317c-1.802-2.649-5.497-1.261-8.225-0.483     c-1.305,0.388-2.575,0.307-3.776,0.032c-8.086-2.395-9.5-11.828-5.033-17.064c2.261-2.665,6.58-4.367,10.068-4.534     c3.576,0.016,6.858,1.963,8.28,6.819L80.996,84.443z"/>
			<path style="fill:#000E3F;" d="M113.514,96.234l0.021,0.048c-1.682,1.129-4.077,1.968-6.218,2.372l-0.048,0.021     c-1.552-1.665-3.698-5.132-5.266-6.576c-1.654,0.418-1.49,0.566-2.864,1.139c-0.021,2.27,1.388,6.042,1.173,8.5     c-0.044,0.018-0.074,0.081-0.118,0.099c-0.448,0.349-2.285,0.845-6.44,2.628c-0.046,0.019-0.046,0.019-0.111-0.007     c-0.148-1.39-4.608-18.42-6.315-34.928c0.813-0.499,1.663-0.531,5.546-2.578c1.541,2.153,8.507,11.9,10.519,14.667     L113.514,96.234z M96.563,87.96c1.076-0.393,2.25-0.935,3.395-1.413C91.535,71.492,93.935,78.026,96.563,87.96z"/>
			<path style="fill:#000E3F;" d="M119.905,81.218l-0.048,0.016c0.989,4.065,2.319,8.075,3.465,11.671     c-2.374,1.049-7.587,2.837-8.202,2.726l-0.062-0.032c-3.793-11.405-5.643-17.279-10.514-31.936l-0.016-0.048     c3.065-1.649,15.32-6.664,21.037-7.098c0.55,1.649,1.926,5.326,2.317,6.975c-3.312,1.363-8.544,3.259-12.329,4.938     c-0.162,1.882,0.608,3.407,1.501,4.211c0.062,0.032,0.062,0.032,0.109,0.016c1.871-0.36,4.576-1.365,5.941-1.975     c0.688,0.818,1.723,5.497,2.712,7.68c0.016,0.048-0.016,0.113-0.111,0.141C123.88,79.474,121.681,80.258,119.905,81.218z"/>
			<path style="fill:#000E3F;" d="M156.558,76.858c0.649,2.042,1.21,4.359,1.148,6.419c-6.578,1.545-13.459,3.728-19.817,4.707     c-2.721-11.2-5.911-21.825-7.966-33.034c7.389-2.203,19.845-5.43,19.917-5.139c0.887,2.183,1.111,4.585,1.665,6.855l0.012,0.046     c-3.883,1.912-8.357,2.233-12.51,3.649l-0.148,0.037l-0.032,0.058c0.504,1.873,0.561,4.005,1.418,5.638l0.06,0.037     c1.966-0.323,3.982-0.866,5.973-1.296l0.012,0.046c0.866,2.093,1.104,4.335,1.725,6.689c-1.85,1.009-5.165,1.252-5.712,1.95     c0.12,1.963,0.945,4.522,1.464,6.033l0.06,0.037c4.248-1.033,8.35-1.617,12.708-2.832L156.558,76.858z"/>
			<path style="fill:#000E3F;" d="M154.967,48.631c1.686-0.448,4.093-1.374,5.998-1.157c1.324,8.391,2.735,17.572,4.594,25.869     c-1.677,0.494-4.368,0.965-6.266,1.349l-0.048,0.009c-1.365-8.634-3.4-17.048-4.425-26.047L154.967,48.631z M160.99,82.916     c-0.441,0.079-0.543-3.94-0.861-5.749l-0.007-0.048c1.453-0.91,4.042-0.811,5.95-1.145c0.268,1.815,0.55,3.989,0.882,5.894     l-0.342,0.062c-0.781,0.136-1.132,0.148-1.866,0.275l-0.097,0.021L160.99,82.916z"/>
		</g>
		<g>
			<path style="fill:#FD8A02;" d="M482.281,354.528c2.331,3.411,5.696,7.674,2.961,9.247c-1.906,1.097-2.961-0.661-4.306-2.699     c-0.771-1.167-2.595-4.697-3.235-4.566c-0.875,0.179-0.416,0.686-1.706,8.036c-0.378,2.152-0.894,4.611-2.993,4.018     c-2.865-0.809-1.941-1.751-0.159-13.872c0.419-2.849-2.21-1.072-5.642,0.467c-1.948,0.874-4.794,1.235-5.353-0.816     c-0.462-1.696,1.094-2.43,2.673-3.194c8.361-4.046,8.283-2.537-1.999-7.265c-1.888-0.868-4.135-2.1-3.118-3.986     c1.758-3.256,10.235,3.249,13.344,3.33c0.504-1.638-0.82-2.769-1.187-4.168c-0.588-2.242-2.184-3.5-1.311-5.809     c0.909-2.406,3.522-0.346,4.696,1.993c3.026,6.027,1.793,5.599,7.274-2.313c1.098-1.583,2.603-3.438,4.175-2.351     c1.693,1.171,0.48,3.186-0.674,5.12c-5.121,8.586-6.423,8.437,3.9,3.946c4.558-1.983,6.701,2.058,0.78,4.74     c-8.797,3.985-8.114,3.358,1.26,6.232c0.881,0.27,3.945,0.717,2.935,3.486c-0.372,1.02-1.275,1.552-2.473,1.229     c-9.328-2.52-11.655-4.163-9.78-0.851C482.324,354.498,482.303,354.513,482.281,354.528z"/>
			<path style="fill:#FD8A02;" d="M416.267,440.05c-3.49-1.121-6.523-1.945-8.445-3.497c-1.906-1.539-0.516-4.601,1.705-4.254     c3.631,0.566,8.865,3.473,9.482,2.753c0.609-0.711-0.307-1.573-0.697-2.309c-2.169-4.095-3.828-6.413-4.763-9.351     c-0.71-2.23,2.739-3.749,4.098-2.225c1.31,1.469,2.122,3.459,7.018,12.12c1.619,2.864,2.745-0.581,4.762-4.376     c1.145-2.154,3.459-4.474,5.401-3.016c1.606,1.206,0.716,2.959-0.172,4.755c-4.708,9.509-5.694,8.094,6.895,5.153     c2.312-0.539,5.203-1.004,5.606,1.411c0.422,2.529-2.636,2.942-7.717,4.394c-0.699,0.2-1.471,0.173-2.144,0.425     c-1.49,0.556-3.171,0.544-4.511,1.53c0.693,1.831,2.681,1.923,3.992,2.929c2.102,1.611,4.425,1.632,5.254,4.322     c0.323,1.048-0.314,2.168-1.383,2.288c-5.216,0.584-10.058-5.962-9.728-1.037c0.509,7.574,1.496,12.304-1.582,12.475     c-2.348,0.131-2.666-2.538-2.981-5.091c-1.401-11.362-0.089-12.168-6.284-0.827c-2.64,4.833-7.557,2.97-4.026-3.73     c5.148-9.771,4.954-8.711-5.504-4.74c-0.68,0.258-1.341,0.599-2.044,0.759c-2.806,0.641-4.613-3.458-1.678-4.687     c10.15-4.252,13.451-4.404,9.419-6.088C416.249,440.107,416.258,440.079,416.267,440.05z"/>
		</g>
	</g>
	<path style="fill:#FD8A02;" d="M157.233,232.56c-1.966,0.853-2.325,2.911-3.044,4.46c-1.235,2.781-1.505,4.978-4.402,6.024   c-1.128,0.407-2.386-0.231-2.572-1.393c-0.909-5.671,5.995-11.305,0.629-10.688c-8.253,0.95-13.373,2.274-13.72-1.081   c-0.265-2.56,2.636-3.046,5.411-3.523c12.348-2.121,13.296-0.729,0.577-6.913c-5.421-2.635-3.639-8.107,3.868-4.594   c10.948,5.121,9.78,4.963,4.896-6.263c-0.318-0.73-0.724-1.435-0.935-2.195c-0.846-3.034,3.541-5.222,5.037-2.077   c5.175,10.875,5.608,14.501,7.239,10.006l0,0c1.045-3.873,1.788-7.232,3.384-9.413c1.584-2.164,5.003-0.803,4.739,1.643   c-0.431,3.999-3.337,9.871-2.518,10.509c0.808,0.628,1.703-0.417,2.487-0.882c4.364-2.583,6.812-4.518,9.975-5.692   c2.401-0.892,4.24,2.799,2.645,4.364c-1.537,1.509-3.671,2.499-12.885,8.301c-3.047,1.918,0.777,2.971,5.03,4.979   c2.414,1.14,5.071,3.549,3.577,5.747c-1.235,1.818-3.197,0.936-5.207,0.058c-10.639-4.653-9.143-5.805-5.275,7.804   c0.71,2.499,1.367,5.636-1.251,6.201c-2.742,0.593-3.352-2.729-5.204-8.208C159.716,239.733,157.646,232.598,157.233,232.56z"/>
	<path style="fill:#FD8A02;" d="M164.45,144.226c0.618,1.633,2.28,2.006,3.513,2.65c2.216,1.113,3.995,1.418,4.734,3.817   c0.288,0.934-0.28,1.933-1.234,2.04c-4.652,0.521-8.971-5.317-8.677-0.925c0.454,6.756,1.334,10.975-1.411,11.127   c-2.094,0.117-2.378-2.264-2.659-4.541c-1.249-10.134-0.08-10.853-5.605-0.737c-2.355,4.311-6.74,2.649-3.591-3.327   c4.592-8.715,4.418-7.77-4.909-4.227c-0.607,0.23-1.196,0.534-1.823,0.677c-2.503,0.572-4.115-3.084-1.496-4.181   c9.054-3.793,12.022-4.005,8.425-5.506l0,0c-3.113-1-5.818-1.735-7.532-3.119c-1.7-1.373-0.46-4.104,1.521-3.795   c3.239,0.505,7.907,3.098,8.458,2.456c0.543-0.634-0.274-1.403-0.622-2.059c-1.934-3.653-3.415-5.72-4.248-8.341   c-0.633-1.989,2.443-3.343,3.655-1.985c1.169,1.31,1.893,3.085,6.26,10.81c1.444,2.555,2.449-0.518,4.248-3.903   c1.021-1.921,3.085-3.991,4.817-2.69c1.432,1.076,0.639,2.639-0.154,4.241c-4.199,8.481-5.079,7.219,6.15,4.596   c2.062-0.481,4.641-0.895,5,1.258c0.377,2.255-2.351,2.624-6.883,3.919C170.386,142.482,164.497,143.891,164.45,144.226z"/>
	<path style="fill:#FD8A02;" d="M75.419,178.726c-1.676,0.49-2.175,2.119-2.913,3.298c-1.28,2.124-1.721,3.873-4.171,4.426   c-0.954,0.215-1.906-0.428-1.939-1.387c-0.161-4.678,5.993-8.535,1.591-8.58c-6.77-0.068-11.045,0.484-10.985-2.264   c0.045-2.097,2.44-2.196,4.733-2.301c10.201-0.464,10.827,0.757,1.167-5.532c-4.117-2.68-2.122-6.925,3.593-3.323   c8.335,5.25,7.406,5.004,4.593-4.569c-0.183-0.623-0.44-1.234-0.534-1.87c-0.377-2.54,3.392-3.865,4.284-1.17   c3.083,9.319,3.066,12.295,4.84,8.825l0,0c1.237-3.026,2.179-5.667,3.69-7.269c1.5-1.59,4.127-0.142,3.666,1.809   c-0.753,3.19-3.699,7.645-3.101,8.243c0.59,0.59,1.42-0.165,2.101-0.461c3.791-1.647,5.966-2.964,8.643-3.592   c2.032-0.478,3.145,2.693,1.697,3.797c-1.396,1.064-3.222,1.649-11.261,5.407c-2.658,1.243,0.328,2.481,3.564,4.536   c1.837,1.166,3.741,3.384,2.311,5.01c-1.183,1.345-2.681,0.433-4.217-0.48c-8.132-4.84-6.806-5.62-5.056,5.777   c0.321,2.093,0.535,4.696-1.64,4.888c-2.278,0.202-2.435-2.546-3.377-7.165C76.699,184.779,75.749,178.799,75.419,178.726z"/>
</g>















</svg>
